<svg xmlns="http://www.w3.org/2000/svg" width="19.704" height="13.945" viewBox="0 0 19.704 13.945">
  <g id="car_1_" data-name="car (1)" transform="translate(0 -5.707)">
    <g id="Group_33" data-name="Group 33" transform="translate(0 5.707)">
      <path id="Path_152" data-name="Path 152" d="M19.59,10.022a.507.507,0,0,0-.391-.186H17.282A6.537,6.537,0,0,0,15.491,6.9c-2.424-1.595-8.854-1.595-11.278,0A6.569,6.569,0,0,0,2.422,9.836H.5a.5.5,0,0,0-.494.607l.284,1.376a.5.5,0,0,0,.494.4h.568a3.407,3.407,0,0,0-.818,2.226,3.335,3.335,0,0,0,1.054,2.5l.022.018V18.9a.757.757,0,0,0,.757.757H4.14A.757.757,0,0,0,4.9,18.9v-.774h9.909V18.9a.757.757,0,0,0,.757.757h1.769a.758.758,0,0,0,.757-.757V17.007a3.461,3.461,0,0,0,.221-4.787h.606a.5.5,0,0,0,.494-.4l.285-1.376A.508.508,0,0,0,19.59,10.022ZM5.044,8.167c1.932-1.272,7.683-1.272,9.614,0a6.238,6.238,0,0,1,1.3,2.46H3.744A6.239,6.239,0,0,1,5.044,8.167Zm-2.263,6.47A1.489,1.489,0,1,1,4.27,16.126,1.489,1.489,0,0,1,2.781,14.637Zm12.673,1.489a1.489,1.489,0,1,1,1.489-1.489A1.489,1.489,0,0,1,15.453,16.126Z" transform="translate(0 -5.707)" fill="#a2a2a2"/>
    </g>
  </g>
</svg>
