<svg id="Group_8" data-name="Group 8" xmlns="http://www.w3.org/2000/svg" width="26" height="26" viewBox="0 0 26 26">
  <rect id="Rectangle_Copy_7" data-name="Rectangle Copy 7" width="26" height="26" fill="none"/>
  <g id="_003-sms" data-name="003-sms" transform="translate(0 2)">
    <path id="Path" d="M16.642,0h-.706V7.906a2.125,2.125,0,0,1-2.114,2.344H0v.376a2.506,2.506,0,0,0,2.463,2.187H13.03l4.043,2.421-.586-2.421h.155c1.247,0,1.81-1.1,1.81-2.187V1.877A1.68,1.68,0,0,0,16.642,0Z" transform="translate(7.333 5.698)" fill="#be1d2d"/>
    <path id="Shape" d="M1.839,17.823v0h0L2.7,14.5C1.372,14.373,0,13.56,0,12.419V2.51C0,1.314,1.59,0,3.038,0H19.091a2.8,2.8,0,0,1,2.715,2.51v9.909c0,1.16-1.218,2.1-2.715,2.1H7.347l-5.506,3.3ZM16.321,5.411a1.477,1.477,0,1,0,1.45,1.477A1.466,1.466,0,0,0,16.321,5.411Zm-5.417,0a1.477,1.477,0,1,0,1.45,1.477A1.466,1.466,0,0,0,10.9,5.411Zm-5.417,0A1.477,1.477,0,1,0,6.937,6.888,1.465,1.465,0,0,0,5.486,5.411Z" transform="translate(0 0.205)" fill="#be1d2d"/>
  </g>
</svg>
