<svg id="_001-home-icon-silhouette" data-name="001-home-icon-silhouette" xmlns="http://www.w3.org/2000/svg" width="25.968" height="23.819" viewBox="0 0 25.968 23.819">
  <path id="Path" d="M25.533,10.764,21.6,6.887V2.409a1.489,1.489,0,0,0-2.977,0V3.955L15.69,1.068a3.959,3.959,0,0,0-5.413,0L.436,10.764a1.451,1.451,0,0,0,0,2.074,1.5,1.5,0,0,0,2.106,0l9.84-9.693a.888.888,0,0,1,1.2,0l9.841,9.694a1.506,1.506,0,0,0,2.106,0A1.451,1.451,0,0,0,25.533,10.764Z" transform="translate(0)" fill="#be1d2d"/>
  <path id="Path-2" data-name="Path" d="M9.9.211a.738.738,0,0,0-1.034,0L.214,8.735A.716.716,0,0,0,0,9.245v6.217A2.662,2.662,0,0,0,2.682,18.1H6.967V11.566h4.838V18.1h4.286a2.662,2.662,0,0,0,2.682-2.642V9.245a.713.713,0,0,0-.214-.51Z" transform="translate(3.597 5.716)" fill="#be1d2d"/>
</svg>
