<svg xmlns="http://www.w3.org/2000/svg" width="14.498" height="14.503" viewBox="0 0 14.498 14.503">
  <path id="location-arrow" d="M15.883,2.622a2.1,2.1,0,0,0-2.175-.515L3.45,5.536A2.1,2.1,0,0,0,3.363,9.5l3.8,1.45h0a.674.674,0,0,1,.384.377L9,15.134A2.081,2.081,0,0,0,10.961,16.5h.051a2.088,2.088,0,0,0,1.95-1.45L16.39,4.775A2.1,2.1,0,0,0,15.883,2.622Zm-.834,1.7L11.584,14.6a.638.638,0,0,1-.609.449.667.667,0,0,1-.631-.42l-1.45-3.806A2.11,2.11,0,0,0,7.684,9.6L3.878,8.153a.652.652,0,0,1-.428-.631A.638.638,0,0,1,3.9,6.913L14.179,3.484a.66.66,0,0,1,.87.834Z" transform="translate(-2.002 -1.994)" fill="#be1d2d"/>
</svg>
