<svg xmlns="http://www.w3.org/2000/svg" width="25.984" height="30.151" viewBox="0 0 25.984 30.151">
  <path id="logout_1_" data-name="logout (1)" d="M18.822,23.085V25.44c0,2.6-1.821,4.711-4.06,4.711H4.56C2.321,30.151.5,28.038.5,25.44V4.711C.5,2.113,2.321,0,4.56,0h10.2c2.239,0,4.06,2.113,4.06,4.711V7.067a1.026,1.026,0,1,1-2.03,0V4.711a2.214,2.214,0,0,0-2.03-2.356H4.56A2.214,2.214,0,0,0,2.53,4.711V25.44A2.214,2.214,0,0,0,4.56,27.8h10.2a2.214,2.214,0,0,0,2.03-2.356V23.085a1.026,1.026,0,1,1,2.03,0Zm6.92-10.032-2.273-2.637a.919.919,0,0,0-1.436,0,1.315,1.315,0,0,0,0,1.665l1.617,1.876H11.463a1.105,1.105,0,0,0-1.015,1.178,1.105,1.105,0,0,0,1.015,1.178H23.65l-1.617,1.876a1.315,1.315,0,0,0,0,1.665.919.919,0,0,0,1.436,0l2.273-2.637a3.292,3.292,0,0,0,0-4.164Zm0,0" transform="translate(-0.5)" fill="#be1d2d"/>
</svg>
