<svg xmlns="http://www.w3.org/2000/svg" width="16.944" height="16.895" viewBox="0 0 16.944 16.895">
  <path id="phone" d="M16.826,11.359a2.676,2.676,0,0,1-.57-.1,8.026,8.026,0,0,1-1.114-.332,1.7,1.7,0,0,0-2.109.85l-.187.383a10.356,10.356,0,0,1-2.262-1.7A10.356,10.356,0,0,1,8.884,8.2l.357-.238a1.7,1.7,0,0,0,.85-2.109A8.783,8.783,0,0,1,9.76,4.735c-.043-.187-.077-.383-.1-.578A2.551,2.551,0,0,0,7.107,2.04H4.557a2.551,2.551,0,0,0-2.551,2.9,16.155,16.155,0,0,0,14.046,14h.323a2.545,2.545,0,0,0,2.551-2.559V13.825A2.551,2.551,0,0,0,16.826,11.359Zm.425,5.1a.85.85,0,0,1-.289.638.893.893,0,0,1-.7.213A14.454,14.454,0,0,1,3.757,4.744a.927.927,0,0,1,.213-.7.85.85,0,0,1,.638-.289H7.158a.85.85,0,0,1,.85.672q.051.349.128.689a9.455,9.455,0,0,0,.391,1.318l-1.19.553A.85.85,0,0,0,6.92,8.119a12.32,12.32,0,0,0,5.952,5.952A.9.9,0,0,0,14,13.629l.527-1.19a11.641,11.641,0,0,0,1.343.391q.34.077.689.128a.85.85,0,0,1,.672.85Z" transform="translate(-1.982 -2.04)" fill="#43b05c"/>
</svg>
