<svg xmlns="http://www.w3.org/2000/svg" width="25.998" height="25.998" viewBox="0 0 25.998 25.998">
  <g id="search-problem" transform="translate(-0.001 0)">
    <g id="Group_9" data-name="Group 9" transform="translate(0.001 0)">
      <path id="Path_121" data-name="Path 121" d="M22.914,18A10.549,10.549,0,0,0,7.995,3.085,10.344,10.344,0,0,0,6.408,15.816a.444.444,0,0,1-.061.529L.965,21.727C-.106,22.8-.361,24.3.589,25.246l.164.163c.95.95,2.448.7,3.519-.376l5.371-5.371a.45.45,0,0,1,.54-.073A10.344,10.344,0,0,0,22.914,18ZM9.943,16.056a7.795,7.795,0,1,1,11.023,0A7.8,7.8,0,0,1,9.943,16.056Z" transform="translate(-0.001 0)" fill="#be1d2d"/>
      <g id="Group_8" data-name="Group 8" transform="translate(13.454 4.994)">
        <path id="Path_122" data-name="Path 122" d="M162.151,67.3a.84.84,0,0,1-.838-.838l-.67-5.988a.84.84,0,0,1,.837-.838h2.393a.84.84,0,0,1,.838.838l-.67,5.988a.84.84,0,0,1-.838.838Z" transform="translate(-160.643 -59.633)" fill="#be1d2d"/>
        <path id="Path_123" data-name="Path 123" d="M173.228,165.594a.672.672,0,0,1-.67.67h-1.014a.672.672,0,0,1-.67-.67V164.58a.672.672,0,0,1,.67-.67h1.014a.672.672,0,0,1,.67.67Z" transform="translate(-170.017 -155.177)" fill="#be1d2d"/>
      </g>
    </g>
  </g>
</svg>
