<svg id="settings-2" xmlns="http://www.w3.org/2000/svg" width="25.968" height="25.969" viewBox="0 0 25.968 25.969">
  <g id="Group_5" data-name="Group 5">
    <g id="Group_4" data-name="Group 4">
      <path id="Path_119" data-name="Path 119" d="M23.989,10.151h-.822a10.659,10.659,0,0,0-.976-2.361l.584-.584a1.982,1.982,0,0,0,0-2.8L21.559,3.194a1.973,1.973,0,0,0-2.791,0l-.584.584A10.216,10.216,0,0,0,15.823,2.8V1.979A1.983,1.983,0,0,0,13.844,0H12.125a1.983,1.983,0,0,0-1.979,1.979V2.8a10.659,10.659,0,0,0-2.361.976L7.2,3.194a1.973,1.973,0,0,0-2.791,0L3.194,4.409a1.982,1.982,0,0,0,0,2.8l.584.584A10.216,10.216,0,0,0,2.8,10.151H1.979A1.983,1.983,0,0,0,0,12.13v1.719a1.983,1.983,0,0,0,1.979,1.979H2.8a10.659,10.659,0,0,0,.976,2.361l-.584.584a1.97,1.97,0,0,0,0,2.786l1.215,1.215a1.973,1.973,0,0,0,2.791,0l.584-.584a10.215,10.215,0,0,0,2.361.976v.822a1.983,1.983,0,0,0,1.979,1.979h1.719a1.983,1.983,0,0,0,1.979-1.979v-.822a10.659,10.659,0,0,0,2.361-.976l.584.584a1.973,1.973,0,0,0,2.791,0l1.215-1.215a1.982,1.982,0,0,0,0-2.8l-.584-.584a10.215,10.215,0,0,0,.976-2.361h.822a1.983,1.983,0,0,0,1.979-1.979V12.119A1.977,1.977,0,0,0,23.989,10.151Zm0,3.762H21.628l-.154.769a8.527,8.527,0,0,1-1.289,3.109l-.435.653,1.671,1.671a.067.067,0,0,1,0,.1l-1.215,1.21a.064.064,0,0,1-.1,0L18.439,19.75l-.653.435a8.565,8.565,0,0,1-3.109,1.289l-.769.154v2.361a.07.07,0,0,1-.069.069H12.119a.07.07,0,0,1-.069-.069V21.628l-.769-.154a8.527,8.527,0,0,1-3.109-1.289l-.653-.435L5.858,21.421a.064.064,0,0,1-.1,0L4.547,20.206a.067.067,0,0,1,0-.1l1.671-1.671-.435-.653a8.565,8.565,0,0,1-1.289-3.109l-.154-.769H1.979a.07.07,0,0,1-.069-.069V12.119a.07.07,0,0,1,.069-.069H4.34l.154-.769A8.527,8.527,0,0,1,5.784,8.172l.435-.653L4.547,5.858a.067.067,0,0,1,0-.1L5.763,4.547a.064.064,0,0,1,.1,0L7.529,6.219l.653-.435a8.565,8.565,0,0,1,3.109-1.289l.769-.154V1.979a.07.07,0,0,1,.069-.069h1.719a.07.07,0,0,1,.069.069V4.34l.769.154A8.527,8.527,0,0,1,17.8,5.784l.653.435L20.11,4.547a.064.064,0,0,1,.1,0l1.215,1.215a.067.067,0,0,1,0,.1L19.75,7.529l.435.653a8.565,8.565,0,0,1,1.289,3.109l.154.769h2.361a.07.07,0,0,1,.069.069v1.714h0A.07.07,0,0,1,23.989,13.913Z" fill="#be1d2d"/>
    </g>
  </g>
  <g id="Group_7" data-name="Group 7" transform="translate(7.673 7.673)">
    <g id="Group_6" data-name="Group 6">
      <path id="Path_120" data-name="Path 120" d="M154.268,148.956a.958.958,0,0,0-.955.955,3.4,3.4,0,1,1-3.4-3.4.955.955,0,1,0,0-1.91,5.312,5.312,0,1,0,5.312,5.311A.958.958,0,0,0,154.268,148.956Z" transform="translate(-144.6 -144.6)" fill="#be1d2d"/>
    </g>
  </g>
</svg>
